<svg width="96" height="18" viewBox="0 0 96 18" fill="none" xmlns="http://www.w3.org/2000/svg">
<path d="M15.1392 8.63636C15.1392 10.4006 14.8207 11.9252 14.1836 13.2102C13.5465 14.4953 12.6726 15.4863 11.5618 16.1832C10.451 16.8802 9.18229 17.2287 7.75568 17.2287C6.32907 17.2287 5.06037 16.8802 3.94957 16.1832C2.83878 15.4863 1.96484 14.4953 1.32777 13.2102C0.690696 11.9252 0.372159 10.4006 0.372159 8.63636C0.372159 6.87216 0.690696 5.34754 1.32777 4.0625C1.96484 2.77746 2.83878 1.78646 3.94957 1.08949C5.06037 0.392518 6.32907 0.0440335 7.75568 0.0440335C9.18229 0.0440335 10.451 0.392518 11.5618 1.08949C12.6726 1.78646 13.5465 2.77746 14.1836 4.0625C14.8207 5.34754 15.1392 6.87216 15.1392 8.63636ZM13.179 8.63636C13.179 7.18797 12.9367 5.96555 12.4521 4.96911C11.9729 3.97266 11.3222 3.21851 10.5 2.70668C9.68324 2.19484 8.76847 1.93892 7.75568 1.93892C6.7429 1.93892 5.8254 2.19484 5.0032 2.70668C4.18643 3.21851 3.53575 3.97266 3.05114 4.96911C2.57197 5.96555 2.33239 7.18797 2.33239 8.63636C2.33239 10.0848 2.57197 11.3072 3.05114 12.3036C3.53575 13.3001 4.18643 14.0542 5.0032 14.5661C5.8254 15.0779 6.7429 15.3338 7.75568 15.3338C8.76847 15.3338 9.68324 15.0779 10.5 14.5661C11.3222 14.0542 11.9729 13.3001 12.4521 12.3036C12.9367 11.3072 13.179 10.0848 13.179 8.63636ZM18.5451 17V0.272727H20.5707V15.2031H28.3462V17H18.5451ZM31.4826 0.272727H33.9002L39.5849 14.1577H39.7809L45.4656 0.272727H47.8832V17H45.9883V4.29119H45.8249L40.5977 17H38.7681L33.5408 4.29119H33.3775V17H31.4826V0.272727ZM65.2087 0.272727V17H63.2485L54.1334 3.86648H53.9701V17H51.9445V0.272727H53.9047L63.0525 13.4389H63.2158V0.272727H65.2087ZM69.2619 17V0.272727H71.2875V15.2031H79.063V17H69.2619ZM95.6617 8.63636C95.6617 10.4006 95.3431 11.9252 94.7061 13.2102C94.069 14.4953 93.195 15.4863 92.0843 16.1832C90.9735 16.8802 89.7048 17.2287 88.2781 17.2287C86.8515 17.2287 85.5828 16.8802 84.472 16.1832C83.3612 15.4863 82.4873 14.4953 81.8502 13.2102C81.2132 11.9252 80.8946 10.4006 80.8946 8.63636C80.8946 6.87216 81.2132 5.34754 81.8502 4.0625C82.4873 2.77746 83.3612 1.78646 84.472 1.08949C85.5828 0.392518 86.8515 0.0440335 88.2781 0.0440335C89.7048 0.0440335 90.9735 0.392518 92.0843 1.08949C93.195 1.78646 94.069 2.77746 94.7061 4.0625C95.3431 5.34754 95.6617 6.87216 95.6617 8.63636ZM93.7014 8.63636C93.7014 7.18797 93.4591 5.96555 92.9745 4.96911C92.4954 3.97266 91.8447 3.21851 91.0225 2.70668C90.2057 2.19484 89.2909 1.93892 88.2781 1.93892C87.2654 1.93892 86.3479 2.19484 85.5257 2.70668C84.7089 3.21851 84.0582 3.97266 83.5736 4.96911C83.0944 5.96555 82.8548 7.18797 82.8548 8.63636C82.8548 10.0848 83.0944 11.3072 83.5736 12.3036C84.0582 13.3001 84.7089 14.0542 85.5257 14.5661C86.3479 15.0779 87.2654 15.3338 88.2781 15.3338C89.2909 15.3338 90.2057 15.0779 91.0225 14.5661C91.8447 14.0542 92.4954 13.3001 92.9745 12.3036C93.4591 11.3072 93.7014 10.0848 93.7014 8.63636Z" fill="url(#paint0_linear_63_4)"/>
<defs>
<linearGradient id="paint0_linear_63_4" x1="-102" y1="10" x2="124" y2="10" gradientUnits="userSpaceOnUse">
<stop offset="0.492326" stop-color="white"/>
<stop offset="1" stop-color="#33FF00"/>
</linearGradient>
</defs>
</svg>
